<svg width="250" height="50" xmlns="http://www.w3.org/2000/svg">
 <!-- Created with Method Draw - http://github.com/duopixel/Method-Draw/ -->

 <g id="Layer_1">
  <title>Layer 1</title>
  <defs>
   <style>@import url(https://fonts.googleapis.com/css?family=Roboto+Slab:100,300,400,700);</style>
  </defs>
  <g id="svg_6">
   <path id="svg_5" fill=" rgb(145, 92, 131)" d="m698.98636,170.03362l0.01252,-0.0021l0,-0.05937l-0.01252,-0.00216l0,-0.00976l0.02608,0l0.00105,0.01239c0.00275,-0.00441 0.00623,-0.00784 0.01042,-0.01029c0.00415,-0.0024 0.00889,-0.0036 0.01422,-0.0036c0.00896,0 0.0159,0.00262 0.02084,0.00786c0.00489,0.00524 0.00734,0.01335 0.00734,0.02431l0,0.04063l0.01252,0.0021l0,0.0097l-0.04017,0l0,-0.0097l0.01252,-0.0021l0,-0.04037c0,-0.0073 -0.00144,-0.01249 -0.00433,-0.0156c-0.00288,-0.00306 -0.0073,-0.00459 -0.01324,-0.00459c-0.00437,0 -0.00821,0.00105 -0.01153,0.00315c-0.00336,0.0021 -0.00605,0.00496 -0.00806,0.00858l0,0.04882l0.01252,0.0021l0,0.0097l-0.04017,0l0,-0.0097zm0.17654,0.02149l-0.07084,0l0,-0.0118l0.07084,0l0,0.0118zm0.0145,-0.02149l0.01252,-0.0021l0,-0.09607l-0.01252,-0.00216l0,-0.00976l0.02765,0l0,0.04777c0.00284,-0.00402 0.00633,-0.00712 0.01049,-0.00931c0.00415,-0.00218 0.00876,-0.00328 0.01383,-0.00328c0.00891,0 0.01582,0.00264 0.02071,0.00793c0.00494,0.00533 0.00741,0.01352 0.00741,0.02457l0,0.0403l0.01252,0.0021l0,0.0097l-0.04017,0l0,-0.0097l0.01252,-0.0021l0,-0.04043c0,-0.00686 -0.00146,-0.01193 -0.00439,-0.0152c-0.00297,-0.00328 -0.00736,-0.00491 -0.01317,-0.00491c-0.00415,0 -0.00793,0.00098 -0.01134,0.00295c-0.00341,0.00197 -0.0062,0.00465 -0.00839,0.00806l0,0.04954l0.01252,0.0021l0,0.0097l-0.04017,0l0,-0.0097zm0.15778,0.0097c-0.00048,-0.00227 -0.00085,-0.0043 -0.00111,-0.00609c-0.00026,-0.00179 -0.00044,-0.00358 -0.00052,-0.00537c-0.00293,0.00376 -0.00658,0.00688 -0.01094,0.00937c-0.00437,0.00249 -0.00904,0.00374 -0.01402,0.00374c-0.00865,0 -0.01523,-0.00212 -0.01973,-0.00636c-0.0045,-0.00424 -0.00675,-0.0102 -0.00675,-0.01789c0,-0.00786 0.00319,-0.01394 0.00957,-0.01822c0.00638,-0.00428 0.01512,-0.00642 0.02621,-0.00642l0.0156,0l0,-0.00963c0,-0.00489 -0.00153,-0.00876 -0.00459,-0.0116c-0.0031,-0.00284 -0.00738,-0.00426 -0.01284,-0.00426c-0.0038,0 -0.00714,0.00048 -0.01003,0.00144c-0.00288,0.001 -0.00522,0.00234 -0.00701,0.004l-0.00164,0.00878l-0.01166,0l0,-0.01612c0.0038,-0.00301 0.00839,-0.00544 0.01376,-0.00727c0.00537,-0.00179 0.01121,-0.00269 0.0175,-0.00269c0.00944,0 0.01706,0.0024 0.02287,0.00721c0.00585,0.00481 0.00878,0.01169 0.00878,0.02064l0,0.04004c0,0.00105 0,0.0021 0,0.00315c0.00004,0.001 0.00011,0.00201 0.0002,0.00301l0.00616,0.00085l0,0.0097l-0.01979,0m-0.02438,-0.01108c0.00502,0 0.00961,-0.0012 0.01376,-0.0036c0.00415,-0.0024 0.00712,-0.00529 0.00891,-0.00865l0,-0.0137l-0.01612,0c-0.0062,0 -0.01112,0.00144 -0.01474,0.00433c-0.00358,0.00284 -0.00537,0.00631 -0.00537,0.01042c0,0.00363 0.00111,0.0064 0.00334,0.00832c0.00227,0.00192 0.00568,0.00288 0.01022,0.00288zm0.12034,-0.04594l-0.0114,0l-0.00242,-0.00996c-0.00188,-0.00175 -0.00419,-0.00315 -0.00695,-0.00419c-0.0028,-0.00105 -0.00596,-0.00157 -0.0095,-0.00157c-0.00537,0 -0.00937,0.00118 -0.01199,0.00354c-0.00262,0.00236 -0.00393,0.0052 -0.00393,0.00852c0,0.00328 0.00116,0.00588 0.00347,0.0078c0.00232,0.00188 0.00701,0.00356 0.01409,0.00505c0.01049,0.00223 0.01828,0.00529 0.0234,0.00917c0.00511,0.00384 0.00767,0.00902 0.00767,0.01553c0,0.00738 -0.00297,0.01335 -0.00891,0.01789c-0.00599,0.00459 -0.01378,0.00688 -0.0234,0.00688c-0.00629,0 -0.01195,-0.00074 -0.01697,-0.00223c-0.00502,-0.00144 -0.0095,-0.00354 -0.01343,-0.00629l-0.00007,-0.019l0.01134,0l0.00282,0.01114c0.00175,0.00157 0.00413,0.00273 0.00714,0.00347c0.00297,0.0007 0.00603,0.00105 0.00917,0.00105c0.00537,0 0.00959,-0.00109 0.01265,-0.00328c0.00301,-0.00214 0.00452,-0.00498 0.00452,-0.00852c0,-0.00336 -0.00127,-0.00612 -0.0038,-0.00826c-0.00253,-0.00214 -0.00732,-0.004 -0.01435,-0.00557c-0.01009,-0.00223 -0.01772,-0.00522 -0.02287,-0.00898c-0.00511,-0.0038 -0.00767,-0.00893 -0.00767,-0.0154c0,-0.00673 0.00288,-0.01247 0.00865,-0.01724c0.00577,-0.00476 0.01326,-0.00714 0.02248,-0.00714c0.00629,0 0.01195,0.00081 0.01697,0.00242c0.00502,0.00166 0.0092,0.00393 0.01252,0.00682l0.00079,0.01835zm0.01448,0.04731l0.01252,-0.0021l0,-0.09607l-0.01252,-0.00216l0,-0.00976l0.02765,0l0,0.04777c0.00284,-0.00402 0.00633,-0.00712 0.01049,-0.00931c0.00415,-0.00218 0.00876,-0.00328 0.01383,-0.00328c0.00891,0 0.01582,0.00264 0.02071,0.00793c0.00494,0.00533 0.00741,0.01352 0.00741,0.02457l0,0.0403l0.01252,0.0021l0,0.0097l-0.04017,0l0,-0.0097l0.01252,-0.0021l0,-0.04043c0,-0.00686 -0.00146,-0.01193 -0.00439,-0.0152c-0.00297,-0.00328 -0.00736,-0.00491 -0.01317,-0.00491c-0.00415,0 -0.00793,0.00098 -0.01134,0.00295c-0.00341,0.00197 -0.0062,0.00465 -0.00839,0.00806l0,0.04954l0.01252,0.0021l0,0.0097l-0.04017,0l0,-0.0097zm0.10352,0l0.01252,-0.0021l0,-0.05937l-0.01252,-0.00216l0,-0.00976l0.02765,0l0,0.0713l0.01252,0.0021l0,0.0097l-0.04017,0l0,-0.0097m0.02765,-0.0947l-0.01514,0l0,-0.0154l0.01514,0l0,0.0154zm0.02106,0.0947l0.01252,-0.0021l0,-0.05937l-0.01252,-0.00216l0,-0.00976l0.02608,0l0.00098,0.01081c0.00267,-0.00393 0.00609,-0.00697 0.01029,-0.00911c0.00419,-0.00214 0.00907,-0.00321 0.01461,-0.00321c0.00555,0 0.01029,0.00127 0.01422,0.0038c0.00398,0.00258 0.00697,0.00642 0.00898,0.01153c0.00262,-0.00472 0.00607,-0.00845 0.01035,-0.01121c0.00433,-0.00275 0.00935,-0.00413 0.01507,-0.00413c0.00848,0 0.01518,0.00291 0.02012,0.00872c0.00489,0.00581 0.00734,0.01455 0.00734,0.02621l0,0.03788l0.01252,0.0021l0,0.0097l-0.04024,0l0,-0.0097l0.01252,-0.0021l0,-0.03807c0,-0.00817 -0.0014,-0.01396 -0.00419,-0.01737c-0.00284,-0.00341 -0.00701,-0.00511 -0.01252,-0.00511c-0.00529,0 -0.00952,0.00186 -0.01271,0.00557c-0.00319,0.00371 -0.00505,0.00839 -0.00557,0.01402l0,0.04096l0.01252,0.0021l0,0.0097l-0.04017,0l0,-0.0097l0.01252,-0.0021l0,-0.03807c0,-0.00778 -0.00144,-0.01346 -0.00433,-0.01704c-0.00288,-0.00363 -0.00708,-0.00544 -0.01258,-0.00544c-0.00459,0 -0.00837,0.00094 -0.01134,0.00282c-0.00297,0.00192 -0.00526,0.00459 -0.00688,0.008l0,0.04974l0.01252,0.0021l0,0.0097l-0.04011,0l0,-0.0097zm0.15079,-0.03264c0,-0.01228 0.00334,-0.02239 0.01003,-0.03034c0.00664,-0.00795 0.01566,-0.01193 0.02707,-0.01193c0.01149,0 0.02058,0.00395 0.02726,0.01186c0.00668,0.00795 0.01003,0.01809 0.01003,0.03041l0,0.0017c0,0.01241 -0.00332,0.02254 -0.00996,0.03041c-0.00668,0.00791 -0.01573,0.01186 -0.02713,0.01186c-0.01153,0 -0.02062,-0.00395 -0.02726,-0.01186c-0.00668,-0.00795 -0.01003,-0.01809 -0.01003,-0.03041l0,-0.0017m0.01514,0.0017c0,0.00883 0.00186,0.0161 0.00557,0.02182c0.00371,0.00572 0.00924,0.00858 0.01658,0.00858c0.00716,0 0.0126,-0.00286 0.01632,-0.00858c0.00376,-0.00572 0.00564,-0.013 0.00564,-0.02182l0,-0.0017c0,-0.00869 -0.00188,-0.01592 -0.00564,-0.02169c-0.00371,-0.00581 -0.00922,-0.00872 -0.01651,-0.00872c-0.00725,0 -0.01271,0.00291 -0.01638,0.00872c-0.00371,0.00577 -0.00557,0.013 -0.00557,0.02169l0,0.0017zm0.09941,-0.06252l0,0.02005l0.01579,0l0,0.01121l-0.01579,0l0,0.05046c0,0.00389 0.00081,0.00662 0.00242,0.00819c0.00162,0.00162 0.00376,0.00242 0.00642,0.00242c0.00135,0 0.00286,-0.00013 0.00452,-0.00039c0.00166,-0.00022 0.00306,-0.00046 0.00419,-0.00072l0.00203,0.01042c-0.00144,0.00092 -0.00354,0.00166 -0.00629,0.00223c-0.00275,0.00061 -0.0055,0.00092 -0.00826,0.00092c-0.00616,0 -0.01105,-0.00186 -0.01468,-0.00557c-0.00363,-0.00371 -0.00544,-0.00955 -0.00544,-0.0175l0,-0.05046l-0.01317,0l0,-0.01121l0.01317,0l0,-0.02005l0.01507,0zm0.0297,0.06081c0,-0.01228 0.00334,-0.02239 0.01003,-0.03034c0.00664,-0.00795 0.01566,-0.01193 0.02707,-0.01193c0.01149,0 0.02058,0.00395 0.02726,0.01186c0.00668,0.00795 0.01003,0.01809 0.01003,0.03041l0,0.0017c0,0.01241 -0.00332,0.02254 -0.00996,0.03041c-0.00668,0.00791 -0.01573,0.01186 -0.02713,0.01186c-0.01153,0 -0.02062,-0.00395 -0.02726,-0.01186c-0.00668,-0.00795 -0.01003,-0.01809 -0.01003,-0.03041l0,-0.0017m0.01514,0.0017c0,0.00883 0.00186,0.0161 0.00557,0.02182c0.00371,0.00572 0.00924,0.00858 0.01658,0.00858c0.00716,0 0.0126,-0.00286 0.01632,-0.00858c0.00376,-0.00572 0.00564,-0.013 0.00564,-0.02182l0,-0.0017c0,-0.00869 -0.00188,-0.01592 -0.00564,-0.02169c-0.00371,-0.00581 -0.00922,-0.00872 -0.01651,-0.00872c-0.00725,0 -0.01271,0.00291 -0.01638,0.00872c-0.00371,0.00577 -0.00557,0.013 -0.00557,0.02169l0,0.0017zm0.19706,0.0021c-0.00048,0.01092 -0.00356,0.02036 -0.00924,0.02831c-0.00568,0.00791 -0.01418,0.01186 -0.02549,0.01186c-0.00371,0 -0.00695,-0.00107 -0.0097,-0.00321c-0.00275,-0.00214 -0.00472,-0.00513 -0.0059,-0.00898c-0.00253,0.00411 -0.00566,0.00716 -0.00937,0.00917c-0.00367,0.00201 -0.00793,0.00301 -0.01278,0.00301c-0.00642,0 -0.0114,-0.0031 -0.01494,-0.00931c-0.00354,-0.00616 -0.00483,-0.01426 -0.00387,-0.02431c0.00114,-0.01324 0.00465,-0.02385 0.01055,-0.03185c0.00585,-0.00804 0.01298,-0.01206 0.02136,-0.01206c0.00537,0 0.00968,0.00068 0.01291,0.00203c0.00328,0.00131 0.00688,0.00334 0.01081,0.00609l-0.00033,0.00033l0.00046,0l-0.00387,0.04496c-0.00048,0.00564 0.00007,0.0095 0.00164,0.0116c0.00157,0.00214 0.00365,0.00321 0.00623,0.00321c0.00633,0 0.01138,-0.00291 0.01514,-0.00872c0.00376,-0.00581 0.00583,-0.01319 0.00623,-0.02215c0.00087,-0.01957 -0.0028,-0.03482 -0.01101,-0.04574c-0.00821,-0.01092 -0.0209,-0.01638 -0.03807,-0.01638c-0.01582,0 -0.02851,0.0059 -0.03807,0.01769c-0.00957,0.01184 -0.01474,0.02726 -0.01553,0.04627c-0.00092,0.01922 0.00293,0.03445 0.01153,0.04568c0.00861,0.01118 0.02095,0.01678 0.03703,0.01678c0.0045,0 0.00907,-0.00057 0.0137,-0.0017c0.00459,-0.00109 0.00848,-0.00253 0.01166,-0.00433l0.00295,0.00826c-0.00345,0.00214 -0.00784,0.0038 -0.01317,0.00498c-0.00529,0.00122 -0.01044,0.00183 -0.01547,0.00183c-0.01944,0 -0.03449,-0.0064 -0.04515,-0.0192c-0.01062,-0.01276 -0.01544,-0.03019 -0.01448,-0.0523c0.00096,-0.02167 0.00734,-0.03928 0.01914,-0.05282c0.01175,-0.01359 0.02715,-0.02038 0.0462,-0.02038c0.0194,0 0.03427,0.0064 0.04463,0.0192c0.0104,0.0128 0.01516,0.03019 0.01429,0.05216m-0.07779,0.00655c-0.00057,0.00725 0,0.01278 0.0017,0.01658c0.00166,0.0038 0.00439,0.0057 0.00819,0.0057c0.00323,0 0.0062,-0.00063 0.00891,-0.0019c0.00275,-0.00127 0.00526,-0.00352 0.00754,-0.00675c-0.00004,-0.00061 -0.00007,-0.00125 -0.00007,-0.0019c0.00004,-0.0007 0.00011,-0.00144 0.0002,-0.00223l0.0036,-0.04135c-0.00131,-0.00061 -0.00271,-0.00109 -0.00419,-0.00144c-0.00144,-0.00035 -0.00295,-0.00052 -0.00452,-0.00052c-0.00642,0 -0.01132,0.00277 -0.01468,0.00832c-0.00341,0.00559 -0.00564,0.01409 -0.00668,0.02549zm0.09209,-0.03991l0,-0.01121l0.01298,0l0,-0.01055c0,-0.00883 0.00232,-0.01566 0.00695,-0.02051c0.00463,-0.00485 0.0111,-0.00727 0.0194,-0.00727c0.00175,0 0.00349,0.00015 0.00524,0.00046c0.00179,0.00026 0.00376,0.00066 0.0059,0.00118l-0.00183,0.01153c-0.00092,-0.00022 -0.00203,-0.00042 -0.00334,-0.00059c-0.00131,-0.00013 -0.00267,-0.0002 -0.00406,-0.0002c-0.00446,0 -0.00775,0.00131 -0.0099,0.00393c-0.00214,0.00267 -0.00321,0.00649 -0.00321,0.01147l0,0.01055l0.01737,0l0,0.01121l-0.01737,0l0,0.06009l0.01252,0.0021l0,0.0097l-0.04017,0l0,-0.0097l0.01252,-0.0021l0,-0.06009l-0.01298,0zm0.05733,-0.00144l0,-0.00976l0.02608,0l0.00144,0.01206c0.00236,-0.00424 0.00526,-0.00756 0.00872,-0.00996c0.00345,-0.0024 0.00741,-0.0036 0.01186,-0.0036c0.00118,0 0.0024,0.00009 0.00367,0.00026c0.00122,0.00017 0.00218,0.00035 0.00288,0.00052l-0.00203,0.01409l-0.00858,-0.00046c-0.00402,0 -0.00738,0.00094 -0.01009,0.00282c-0.00271,0.00183 -0.00481,0.00446 -0.00629,0.00786l0,0.04771l0.01252,0.0021l0,0.0097l-0.04017,0l0,-0.0097l0.01252,-0.0021l0,-0.05937l-0.01252,-0.00216zm0.10151,0.07497c-0.01158,0 -0.02077,-0.00387 -0.02759,-0.0116c-0.00686,-0.00769 -0.01029,-0.01767 -0.01029,-0.02995l0,-0.00341c0,-0.01184 0.00354,-0.02169 0.01062,-0.02956c0.00703,-0.00782 0.01536,-0.01173 0.02497,-0.01173c0.01118,0 0.01964,0.00336 0.02536,0.01009c0.00577,0.00677 0.00865,0.01579 0.00865,0.02707l0,0.00944l-0.05387,0l-0.00026,0.00039c0.00017,0.008 0.00221,0.01455 0.00609,0.01966c0.00389,0.00516 0.00933,0.00773 0.01632,0.00773c0.00511,0 0.00961,-0.00072 0.0135,-0.00216c0.00384,-0.00149 0.00719,-0.0035 0.01003,-0.00603l0.0059,0.00983c-0.00297,0.00284 -0.0069,0.00524 -0.0118,0.00721c-0.00489,0.00201 -0.01077,0.00301 -0.01763,0.00301m-0.00229,-0.07438c-0.00507,0 -0.00939,0.00214 -0.01298,0.00642c-0.00358,0.00428 -0.00579,0.00966 -0.00662,0.01612l0.0002,0.00033l0.03827,0l0,-0.00197c0,-0.00594 -0.00157,-0.0109 -0.00472,-0.01488c-0.00319,-0.00402 -0.00791,-0.00603 -0.01416,-0.00603zm0.08682,0.07438c-0.01158,0 -0.02077,-0.00387 -0.02759,-0.0116c-0.00686,-0.00769 -0.01029,-0.01767 -0.01029,-0.02995l0,-0.00341c0,-0.01184 0.00354,-0.02169 0.01062,-0.02956c0.00703,-0.00782 0.01536,-0.01173 0.02497,-0.01173c0.01118,0 0.01964,0.00336 0.02536,0.01009c0.00577,0.00677 0.00865,0.01579 0.00865,0.02707l0,0.00944l-0.05387,0l-0.00026,0.00039c0.00017,0.008 0.00221,0.01455 0.00609,0.01966c0.00389,0.00516 0.00933,0.00773 0.01632,0.00773c0.00511,0 0.00961,-0.00072 0.0135,-0.00216c0.00384,-0.00149 0.00719,-0.0035 0.01003,-0.00603l0.0059,0.00983c-0.00297,0.00284 -0.0069,0.00524 -0.0118,0.00721c-0.00489,0.00201 -0.01077,0.00301 -0.01763,0.00301m-0.00229,-0.07438c-0.00507,0 -0.00939,0.00214 -0.01298,0.00642c-0.00358,0.00428 -0.00579,0.00966 -0.00662,0.01612l0.0002,0.00033l0.03827,0l0,-0.00197c0,-0.00594 -0.00157,-0.0109 -0.00472,-0.01488c-0.00319,-0.00402 -0.00791,-0.00603 -0.01416,-0.00603zm0.1125,0.01573l-0.0114,0l-0.00242,-0.00996c-0.00188,-0.00175 -0.00419,-0.00315 -0.00695,-0.00419c-0.0028,-0.00105 -0.00596,-0.00157 -0.0095,-0.00157c-0.00537,0 -0.00937,0.00118 -0.01199,0.00354c-0.00262,0.00236 -0.00393,0.0052 -0.00393,0.00852c0,0.00328 0.00116,0.00588 0.00347,0.0078c0.00232,0.00188 0.00701,0.00356 0.01409,0.00505c0.01049,0.00223 0.01828,0.00529 0.0234,0.00917c0.00511,0.00384 0.00767,0.00902 0.00767,0.01553c0,0.00738 -0.00297,0.01335 -0.00891,0.01789c-0.00599,0.00459 -0.01378,0.00688 -0.0234,0.00688c-0.00629,0 -0.01195,-0.00074 -0.01697,-0.00223c-0.00502,-0.00144 -0.0095,-0.00354 -0.01343,-0.00629l-0.00007,-0.019l0.01134,0l0.00282,0.01114c0.00175,0.00157 0.00413,0.00273 0.00714,0.00347c0.00297,0.0007 0.00603,0.00105 0.00917,0.00105c0.00537,0 0.00959,-0.00109 0.01265,-0.00328c0.00301,-0.00214 0.00452,-0.00498 0.00452,-0.00852c0,-0.00336 -0.00127,-0.00612 -0.0038,-0.00826c-0.00253,-0.00214 -0.00732,-0.004 -0.01435,-0.00557c-0.01009,-0.00223 -0.01772,-0.00522 -0.02287,-0.00898c-0.00511,-0.0038 -0.00767,-0.00893 -0.00767,-0.0154c0,-0.00673 0.00288,-0.01247 0.00865,-0.01724c0.00577,-0.00476 0.01326,-0.00714 0.02248,-0.00714c0.00629,0 0.01195,0.00081 0.01697,0.00242c0.00502,0.00166 0.0092,0.00393 0.01252,0.00682l0.00079,0.01835zm0.04292,-0.04614l0,0.02005l0.01579,0l0,0.01121l-0.01579,0l0,0.05046c0,0.00389 0.00081,0.00662 0.00242,0.00819c0.00162,0.00162 0.00376,0.00242 0.00642,0.00242c0.00135,0 0.00286,-0.00013 0.00452,-0.00039c0.00166,-0.00022 0.00306,-0.00046 0.00419,-0.00072l0.00203,0.01042c-0.00144,0.00092 -0.00354,0.00166 -0.00629,0.00223c-0.00275,0.00061 -0.0055,0.00092 -0.00826,0.00092c-0.00616,0 -0.01105,-0.00186 -0.01468,-0.00557c-0.00363,-0.00371 -0.00544,-0.00955 -0.00544,-0.0175l0,-0.05046l-0.01317,0l0,-0.01121l0.01317,0l0,-0.02005l0.01507,0zm0.11013,0.02982l-0.00747,0.00111l-0.03159,0.085c-0.00214,0.00555 -0.00518,0.0104 -0.00911,0.01455c-0.00393,0.00415 -0.00922,0.00623 -0.01586,0.00623c-0.00118,0 -0.00273,-0.00013 -0.00465,-0.00039c-0.00188,-0.00031 -0.00332,-0.00059 -0.00432,-0.00085l0.00151,-0.01186c-0.00031,-0.00004 0.00061,0 0.00275,0.00013c0.0021,0.00017 0.00343,0.00026 0.004,0.00026c0.00323,0 0.00585,-0.0014 0.00786,-0.00419c0.00197,-0.0028 0.00369,-0.00601 0.00518,-0.00963l0.0036,-0.00865l-0.02739,-0.07045l-0.0076,-0.00125l0,-0.00976l0.03355,0l0,0.00976l-0.00937,0.00151l0.01435,0.04102l0.00275,0.01062l0.00052,0l0.01724,-0.05164l-0.00944,-0.00151l0,-0.00976l0.03349,0l0,0.00976zm0.00821,-0.0367l0,-0.00976l0.02765,0l0,0.108l0.01252,0.0021l0,0.0097l-0.04017,0l0,-0.0097l0.01252,-0.0021l0,-0.09607l-0.01252,-0.00216zm0.08949,0.11167c-0.01158,0 -0.02077,-0.00387 -0.02759,-0.0116c-0.00686,-0.00769 -0.01029,-0.01767 -0.01029,-0.02995l0,-0.00341c0,-0.01184 0.00354,-0.02169 0.01062,-0.02956c0.00703,-0.00782 0.01536,-0.01173 0.02497,-0.01173c0.01118,0 0.01964,0.00336 0.02536,0.01009c0.00577,0.00677 0.00865,0.01579 0.00865,0.02707l0,0.00944l-0.05387,0l-0.00026,0.00039c0.00017,0.008 0.00221,0.01455 0.00609,0.01966c0.00389,0.00516 0.00933,0.00773 0.01632,0.00773c0.00511,0 0.00961,-0.00072 0.0135,-0.00216c0.00384,-0.00149 0.00719,-0.0035 0.01003,-0.00603l0.0059,0.00983c-0.00297,0.00284 -0.0069,0.00524 -0.0118,0.00721c-0.00489,0.00201 -0.01077,0.00301 -0.01763,0.00301m-0.00229,-0.07438c-0.00507,0 -0.00939,0.00214 -0.01298,0.00642c-0.00358,0.00428 -0.00579,0.00966 -0.00662,0.01612l0.0002,0.00033l0.03827,0l0,-0.00197c0,-0.00594 -0.00157,-0.0109 -0.00472,-0.01488c-0.00319,-0.00402 -0.00791,-0.00603 -0.01416,-0.00603zm0.1125,0.01573l-0.0114,0l-0.00242,-0.00996c-0.00188,-0.00175 -0.00419,-0.00315 -0.00695,-0.00419c-0.0028,-0.00105 -0.00596,-0.00157 -0.0095,-0.00157c-0.00537,0 -0.00937,0.00118 -0.01199,0.00354c-0.00262,0.00236 -0.00393,0.0052 -0.00393,0.00852c0,0.00328 0.00116,0.00588 0.00347,0.0078c0.00232,0.00188 0.00701,0.00356 0.01409,0.00505c0.01049,0.00223 0.01828,0.00529 0.0234,0.00917c0.00511,0.00384 0.00767,0.00902 0.00767,0.01553c0,0.00738 -0.00297,0.01335 -0.00891,0.01789c-0.00599,0.00459 -0.01378,0.00688 -0.0234,0.00688c-0.00629,0 -0.01195,-0.00074 -0.01697,-0.00223c-0.00502,-0.00144 -0.0095,-0.00354 -0.01343,-0.00629l-0.00007,-0.019l0.01134,0l0.00282,0.01114c0.00175,0.00157 0.00413,0.00273 0.00714,0.00347c0.00297,0.0007 0.00603,0.00105 0.00917,0.00105c0.00537,0 0.00959,-0.00109 0.01265,-0.00328c0.00301,-0.00214 0.00452,-0.00498 0.00452,-0.00852c0,-0.00336 -0.00127,-0.00612 -0.0038,-0.00826c-0.00253,-0.00214 -0.00732,-0.004 -0.01435,-0.00557c-0.01009,-0.00223 -0.01772,-0.00522 -0.02287,-0.00898c-0.00511,-0.0038 -0.00767,-0.00893 -0.00767,-0.0154c0,-0.00673 0.00288,-0.01247 0.00865,-0.01724c0.00577,-0.00476 0.01326,-0.00714 0.02248,-0.00714c0.00629,0 0.01195,0.00081 0.01697,0.00242c0.00502,0.00166 0.0092,0.00393 0.01252,0.00682l0.00079,0.01835zm0.03598,0.05701l-0.01514,0l0,-0.01553l0.01514,0l0,0.01553zm0.04414,0.00682c0,0.00856 -0.00221,0.01516 -0.00662,0.01979c-0.00441,0.00463 -0.01053,0.00695 -0.01835,0.00695c-0.00162,0 -0.0031,-0.00011 -0.00446,-0.00033c-0.00131,-0.00022 -0.00269,-0.00057 -0.00413,-0.00105l0.00098,-0.01193c0.0007,0.00026 0.00175,0.00048 0.00315,0.00066c0.0014,0.00017 0.00253,0.00026 0.00341,0.00026c0.00332,0 0.00596,-0.00111 0.00793,-0.00334c0.00197,-0.00227 0.00295,-0.00594 0.00295,-0.01101l0,-0.07798l-0.01252,-0.00216l0,-0.00976l0.02765,0l0,0.08991m-0.00046,-0.11147l-0.01514,0l0,-0.01514l0.01514,0l0,0.01514zm0.0167,0.12687l0.01252,-0.00216l0,-0.09122l-0.01252,-0.00216l0,-0.00976l0.02549,0l0.00138,0.01016c0.0028,-0.0038 0.00616,-0.00671 0.01009,-0.00872c0.00398,-0.00197 0.00858,-0.00295 0.01383,-0.00295c0.01027,0 0.01826,0.00408 0.02399,0.01225c0.00572,0.00813 0.00858,0.0189 0.00858,0.03231l0,0.00164c0,0.01197 -0.00288,0.02163 -0.00865,0.02897c-0.00572,0.00738 -0.01363,0.01108 -0.02372,0.01108c-0.00511,0 -0.00959,-0.00087 -0.01343,-0.00262c-0.00389,-0.0017 -0.00719,-0.00424 -0.0099,-0.0076l0,0.02864l0.01252,0.00216l0,0.00976l-0.04017,0l0,-0.00976m0.06815,-0.06226c0,-0.00944 -0.00186,-0.01719 -0.00557,-0.02326c-0.00367,-0.00603 -0.00915,-0.00904 -0.01645,-0.00904c-0.00428,0 -0.00795,0.00098 -0.01101,0.00295c-0.0031,0.00192 -0.00559,0.00457 -0.00747,0.00793l0,0.0405c0.00188,0.00345 0.00435,0.00609 0.00741,0.00793c0.00306,0.00188 0.00682,0.00282 0.01127,0.00282c0.00717,0 0.01258,-0.0026 0.01625,-0.0078c0.00371,-0.00524 0.00557,-0.01204 0.00557,-0.02038l0,-0.00164z"/>
  </g>
  <text style="cursor: move;" stroke="#000000" font-style="normal" font-weight="normal" xml:space="preserve" text-anchor="start" font-family="'Poppins ExtraLight'" font-size="24" id="svg_7" y="200" x="1400" opacity="undefined" stroke-width="0" fill="#aa56ff">n_hashimoto@freestyles.jp</text>
  <text xml:space="preserve" text-anchor="start" font-family="'Montserrat ExtraBold'" font-size="16" id="svg_8" y="40" x="8.5" opacity="undefined" fill-opacity="null" stroke-opacity="null" stroke-dasharray="null" stroke-width="0" stroke="#000000" fill="#aa56ff">n_hashimoto@freestyles.jp</text>
 </g>
</svg>